<svg width="512" height="512" viewBox="0 0 512 512" fill="none" xmlns="http://www.w3.org/2000/svg">
  <mask id="mask0_6_5" style="mask-type:alpha" maskUnits="userSpaceOnUse" x="0" y="0" width="512" height="512">
    <rect width="512" height="512" fill="black"/>
  </mask>

  <g mask="url(#mask0_6_5)">
    <path d="M329.2 353.4C331.867 339.267 334.267 327 336.4 316.6C338.533 305.933 340.4 296.067 342 287C343.6 277.933 345.067 269 346.4 260.2C348 251.133 349.6 241.133 351.2 230.2C353.067 219 355.067 206.333 357.2 192.2C359.6 177.8 362.4 160.6 365.6 140.6C366.4 135.533 367.733 132.333 369.6 131C371.467 129.4 376.133 128.6 383.6 128.6C386.533 128.6 390.933 128.867 396.8 129.4C402.667 129.667 408.533 130.867 414.4 133C420.267 134.867 425.333 137.933 429.6 142.2C434.133 146.2 436.4 151.933 436.4 159.4C436.4 163.667 435.6 170.333 434 179.4C432.4 188.2 430.133 198.467 427.2 210.2C424.533 221.667 421.333 234.2 417.6 247.8C414.133 261.4 410.533 275.133 406.8 289C403.067 302.867 399.2 316.333 395.2 329.4C391.467 342.467 387.867 354.333 384.4 365C381.2 375.4 378.267 384.2 375.6 391.4C372.933 398.6 371.067 403.267 370 405.4C368.4 408.333 366.133 410.333 363.2 411.4C360.267 412.467 357.333 413 354.4 413H316.4C309.467 413 303.6 411.667 298.8 409C294.267 406.333 290.4 402.867 287.2 398.6C284.267 394.333 281.867 389.533 280 384.2C278.4 378.867 277.333 373.4 276.8 367.8L256.8 188.2C255.2 199.933 253.333 213.133 251.2 227.8C249.333 242.467 247.2 257.4 244.8 272.6C242.667 287.8 240.533 302.733 238.4 317.4C236.267 332.067 234.133 345.533 232 357.8C229.867 369.8 227.867 380.067 226 388.6C224.133 397.133 222.533 402.733 221.2 405.4C219.867 408.333 217.733 410.333 214.8 411.4C211.867 412.467 208.8 413 205.6 413H167.6C160.933 413 155.333 411.8 150.8 409.4C146.533 406.733 142.933 403.267 140 399C137.067 394.733 134.667 389.933 132.8 384.6C130.933 379 129.333 373.4 128 367.8C117.067 324.333 108.133 288.6 101.2 260.6C94.5333 232.6 89.2 210.2 85.2 193.4C81.2 176.333 78.4 163.933 76.8 156.2C75.4667 148.2 74.8 142.467 74.8 139C74.8 134.467 76.1333 131.533 78.8 130.2C81.7333 128.867 87.7333 128.2 96.8 128.2C108 128.2 117.333 129 124.8 130.6C132.533 132.2 138.8 134.733 143.6 138.2C148.4 141.4 152 145.8 154.4 151.4C157.067 156.733 158.8 163.267 159.6 171C159.6 172.067 159.733 173.667 160 175.8C160.267 177.667 160.533 180.867 160.8 185.4C161.333 189.933 162 196.2 162.8 204.2C163.867 211.933 165.067 222.333 166.4 235.4C168 248.467 169.867 264.733 172 284.2C174.4 303.4 177.2 326.467 180.4 353.4C183.333 337.133 185.6 324.067 187.2 314.2C189.067 304.067 190.667 295.267 192 287.8C193.333 280.067 194.533 272.733 195.6 265.8C196.667 258.6 197.867 249.8 199.2 239.4C200.8 228.733 202.533 215.4 204.4 199.4C206.533 183.4 209.2 162.6 212.4 137C212.667 135.133 213.733 133.667 215.6 132.6C217.733 131.533 220.267 130.733 223.2 130.2C226.133 129.667 229.333 129.4 232.8 129.4C236.533 129.133 240 129 243.2 129C253.867 129 262.933 129.667 270.4 131C277.867 132.067 284 134.067 288.8 137C293.867 139.933 297.867 143.933 300.8 149C303.733 153.8 306.133 159.8 308 167C308.8 170.467 309.733 175.267 310.8 181.4C311.867 187.267 313.067 196.733 314.4 209.8C316 222.867 317.867 240.867 320 263.8C322.4 286.467 325.467 316.333 329.2 353.4Z"/>
  </g>
</svg>
