<svg
  width="240"
  height="325"
  viewBox="0 0 240 325"
  fill="none"
  xmlns="http://www.w3.org/2000/svg"
>
  <path
    d="M240 302C240 308.333 237.667 313.833 233 318.5C228.667 322.833 223.333 325 217 325H203.5C197.167 325 191.667 322.833 187 318.5C182.667 313.833 180.5 308.333 180.5 302V66.5C180.5 62.1667 178.333 60 174 60H156C151.667 60 149.5 62.1667 149.5 66.5V302C149.5 308.333 147.333 313.833 143 318.5C138.667 322.833 133.333 325 127 325H68.5C56.1667 325 44.6667 322 34 316C23.6667 309.667 15.3333 301.333 9 291C3 280.667 1.41561e-06 269.167 1.41561e-06 256.5V56.5C1.41561e-06 40.8333 5.5 27.6666 16.5 17C27.5 5.99997 40.6667 0.499976 56 0.499976H184.5C194.833 0.499976 204.167 2.99998 212.5 8C220.833 13 227.5 19.8333 232.5 28.5C237.5 36.8333 240 46.1667 240 56.5V302ZM90.5 66.5C90.5 62.1667 88.3333 60 84 60H66C61.6667 60 59.5 62.1667 59.5 66.5V256.5C59.5 258.833 60.3333 261 62 263C64 264.667 66.1667 265.5 68.5 265.5H84C88.3333 265.5 90.5 263.333 90.5 259V66.5Z"
  />
</svg>
